<svg xmlns="http://www.w3.org/2000/svg" viewBox="0 0 1200 630" fill="none">
  <rect width="1200" height="630" fill="#14171C"/>
  <text x="600" y="44" font-family="Inter,system-ui,sans-serif" font-size="22" font-weight="700" fill="#DDE0E6" text-anchor="middle">Industry Hiring Heatmap</text>

  <!-- Main heatmap card -->
  <g transform="translate(40,70)">
    <rect width="720" height="520" rx="12" fill="#1C2028" stroke="#222832" stroke-width="1.5"/>
    <rect width="720" height="44" rx="12" fill="#222832"/>
    <text x="24" y="28" font-family="Inter,system-ui,sans-serif" font-size="14" font-weight="600" fill="#DDE0E6">Postings by industry × function — last 30 days</text>

    <!-- Column headers (functions) -->
    <g font-family="Inter,system-ui,sans-serif" font-size="11" fill="#8a9499" text-anchor="middle">
      <text x="260" y="78">Engineering</text>
      <text x="350" y="78">Product</text>
      <text x="440" y="78">Sales</text>
      <text x="530" y="78">Marketing</text>
      <text x="620" y="78">Ops</text>
    </g>

    <!-- Row: AI / ML -->
    <g transform="translate(0,90)">
      <text x="24" y="30" font-family="Inter,system-ui,sans-serif" font-size="12" font-weight="600" fill="#DDE0E6">AI / ML</text>
      <rect x="220" y="12" width="80" height="40" rx="4" fill="#E07850"/>
      <text x="260" y="37" font-family="Inter,system-ui,sans-serif" font-size="13" font-weight="700" fill="#14171C" text-anchor="middle">412</text>
      <rect x="310" y="12" width="80" height="40" rx="4" fill="#E07850" opacity="0.72"/>
      <text x="350" y="37" font-family="Inter,system-ui,sans-serif" font-size="13" font-weight="700" fill="#14171C" text-anchor="middle">186</text>
      <rect x="400" y="12" width="80" height="40" rx="4" fill="#E07850" opacity="0.45"/>
      <text x="440" y="37" font-family="Inter,system-ui,sans-serif" font-size="13" font-weight="700" fill="#DDE0E6" text-anchor="middle">94</text>
      <rect x="490" y="12" width="80" height="40" rx="4" fill="#E07850" opacity="0.3"/>
      <text x="530" y="37" font-family="Inter,system-ui,sans-serif" font-size="13" font-weight="700" fill="#DDE0E6" text-anchor="middle">52</text>
      <rect x="580" y="12" width="80" height="40" rx="4" fill="#E07850" opacity="0.2"/>
      <text x="620" y="37" font-family="Inter,system-ui,sans-serif" font-size="13" font-weight="700" fill="#DDE0E6" text-anchor="middle">28</text>
    </g>

    <!-- Row: SaaS -->
    <g transform="translate(0,146)">
      <text x="24" y="30" font-family="Inter,system-ui,sans-serif" font-size="12" font-weight="600" fill="#DDE0E6">SaaS</text>
      <rect x="220" y="12" width="80" height="40" rx="4" fill="#E07850" opacity="0.68"/>
      <text x="260" y="37" font-family="Inter,system-ui,sans-serif" font-size="13" font-weight="700" fill="#14171C" text-anchor="middle">224</text>
      <rect x="310" y="12" width="80" height="40" rx="4" fill="#E07850" opacity="0.5"/>
      <text x="350" y="37" font-family="Inter,system-ui,sans-serif" font-size="13" font-weight="700" fill="#DDE0E6" text-anchor="middle">118</text>
      <rect x="400" y="12" width="80" height="40" rx="4" fill="#E07850" opacity="0.8"/>
      <text x="440" y="37" font-family="Inter,system-ui,sans-serif" font-size="13" font-weight="700" fill="#14171C" text-anchor="middle">276</text>
      <rect x="490" y="12" width="80" height="40" rx="4" fill="#E07850" opacity="0.42"/>
      <text x="530" y="37" font-family="Inter,system-ui,sans-serif" font-size="13" font-weight="700" fill="#DDE0E6" text-anchor="middle">88</text>
      <rect x="580" y="12" width="80" height="40" rx="4" fill="#E07850" opacity="0.3"/>
      <text x="620" y="37" font-family="Inter,system-ui,sans-serif" font-size="13" font-weight="700" fill="#DDE0E6" text-anchor="middle">54</text>
    </g>

    <!-- Row: Fintech -->
    <g transform="translate(0,202)">
      <text x="24" y="30" font-family="Inter,system-ui,sans-serif" font-size="12" font-weight="600" fill="#DDE0E6">Fintech</text>
      <rect x="220" y="12" width="80" height="40" rx="4" fill="#E07850" opacity="0.55"/>
      <text x="260" y="37" font-family="Inter,system-ui,sans-serif" font-size="13" font-weight="700" fill="#14171C" text-anchor="middle">148</text>
      <rect x="310" y="12" width="80" height="40" rx="4" fill="#E07850" opacity="0.38"/>
      <text x="350" y="37" font-family="Inter,system-ui,sans-serif" font-size="13" font-weight="700" fill="#DDE0E6" text-anchor="middle">72</text>
      <rect x="400" y="12" width="80" height="40" rx="4" fill="#E07850" opacity="0.5"/>
      <text x="440" y="37" font-family="Inter,system-ui,sans-serif" font-size="13" font-weight="700" fill="#DDE0E6" text-anchor="middle">122</text>
      <rect x="490" y="12" width="80" height="40" rx="4" fill="#E07850" opacity="0.28"/>
      <text x="530" y="37" font-family="Inter,system-ui,sans-serif" font-size="13" font-weight="700" fill="#DDE0E6" text-anchor="middle">46</text>
      <rect x="580" y="12" width="80" height="40" rx="4" fill="#E07850" opacity="0.35"/>
      <text x="620" y="37" font-family="Inter,system-ui,sans-serif" font-size="13" font-weight="700" fill="#DDE0E6" text-anchor="middle">64</text>
    </g>

    <!-- Row: Cybersecurity -->
    <g transform="translate(0,258)">
      <text x="24" y="30" font-family="Inter,system-ui,sans-serif" font-size="12" font-weight="600" fill="#DDE0E6">Cybersecurity</text>
      <rect x="220" y="12" width="80" height="40" rx="4" fill="#E07850" opacity="0.6"/>
      <text x="260" y="37" font-family="Inter,system-ui,sans-serif" font-size="13" font-weight="700" fill="#14171C" text-anchor="middle">178</text>
      <rect x="310" y="12" width="80" height="40" rx="4" fill="#E07850" opacity="0.22"/>
      <text x="350" y="37" font-family="Inter,system-ui,sans-serif" font-size="13" font-weight="700" fill="#DDE0E6" text-anchor="middle">34</text>
      <rect x="400" y="12" width="80" height="40" rx="4" fill="#E07850" opacity="0.55"/>
      <text x="440" y="37" font-family="Inter,system-ui,sans-serif" font-size="13" font-weight="700" fill="#DDE0E6" text-anchor="middle">142</text>
      <rect x="490" y="12" width="80" height="40" rx="4" fill="#E07850" opacity="0.25"/>
      <text x="530" y="37" font-family="Inter,system-ui,sans-serif" font-size="13" font-weight="700" fill="#DDE0E6" text-anchor="middle">40</text>
      <rect x="580" y="12" width="80" height="40" rx="4" fill="#E07850" opacity="0.2"/>
      <text x="620" y="37" font-family="Inter,system-ui,sans-serif" font-size="13" font-weight="700" fill="#DDE0E6" text-anchor="middle">26</text>
    </g>

    <!-- Row: Healthcare -->
    <g transform="translate(0,314)">
      <text x="24" y="30" font-family="Inter,system-ui,sans-serif" font-size="12" font-weight="600" fill="#DDE0E6">Healthcare</text>
      <rect x="220" y="12" width="80" height="40" rx="4" fill="#E07850" opacity="0.38"/>
      <text x="260" y="37" font-family="Inter,system-ui,sans-serif" font-size="13" font-weight="700" fill="#DDE0E6" text-anchor="middle">76</text>
      <rect x="310" y="12" width="80" height="40" rx="4" fill="#E07850" opacity="0.25"/>
      <text x="350" y="37" font-family="Inter,system-ui,sans-serif" font-size="13" font-weight="700" fill="#DDE0E6" text-anchor="middle">38</text>
      <rect x="400" y="12" width="80" height="40" rx="4" fill="#E07850" opacity="0.4"/>
      <text x="440" y="37" font-family="Inter,system-ui,sans-serif" font-size="13" font-weight="700" fill="#DDE0E6" text-anchor="middle">84</text>
      <rect x="490" y="12" width="80" height="40" rx="4" fill="#E07850" opacity="0.3"/>
      <text x="530" y="37" font-family="Inter,system-ui,sans-serif" font-size="13" font-weight="700" fill="#DDE0E6" text-anchor="middle">52</text>
      <rect x="580" y="12" width="80" height="40" rx="4" fill="#E07850" opacity="0.45"/>
      <text x="620" y="37" font-family="Inter,system-ui,sans-serif" font-size="13" font-weight="700" fill="#DDE0E6" text-anchor="middle">92</text>
    </g>

    <!-- Row: E-commerce -->
    <g transform="translate(0,370)">
      <text x="24" y="30" font-family="Inter,system-ui,sans-serif" font-size="12" font-weight="600" fill="#DDE0E6">E-commerce</text>
      <rect x="220" y="12" width="80" height="40" rx="4" fill="#E07850" opacity="0.32"/>
      <text x="260" y="37" font-family="Inter,system-ui,sans-serif" font-size="13" font-weight="700" fill="#DDE0E6" text-anchor="middle">58</text>
      <rect x="310" y="12" width="80" height="40" rx="4" fill="#E07850" opacity="0.2"/>
      <text x="350" y="37" font-family="Inter,system-ui,sans-serif" font-size="13" font-weight="700" fill="#DDE0E6" text-anchor="middle">22</text>
      <rect x="400" y="12" width="80" height="40" rx="4" fill="#E07850" opacity="0.4"/>
      <text x="440" y="37" font-family="Inter,system-ui,sans-serif" font-size="13" font-weight="700" fill="#DDE0E6" text-anchor="middle">86</text>
      <rect x="490" y="12" width="80" height="40" rx="4" fill="#E07850" opacity="0.5"/>
      <text x="530" y="37" font-family="Inter,system-ui,sans-serif" font-size="13" font-weight="700" fill="#DDE0E6" text-anchor="middle">120</text>
      <rect x="580" y="12" width="80" height="40" rx="4" fill="#E07850" opacity="0.28"/>
      <text x="620" y="37" font-family="Inter,system-ui,sans-serif" font-size="13" font-weight="700" fill="#DDE0E6" text-anchor="middle">44</text>
    </g>

    <!-- Legend scale -->
    <g transform="translate(220,450)">
      <text x="0" y="8" font-family="Inter,system-ui,sans-serif" font-size="10" fill="#8a9499">LESS</text>
      <rect x="40" y="0" width="30" height="12" rx="2" fill="#E07850" opacity="0.2"/>
      <rect x="72" y="0" width="30" height="12" rx="2" fill="#E07850" opacity="0.4"/>
      <rect x="104" y="0" width="30" height="12" rx="2" fill="#E07850" opacity="0.6"/>
      <rect x="136" y="0" width="30" height="12" rx="2" fill="#E07850" opacity="0.8"/>
      <rect x="168" y="0" width="30" height="12" rx="2" fill="#E07850"/>
      <text x="210" y="8" font-family="Inter,system-ui,sans-serif" font-size="10" fill="#8a9499">MORE</text>
      <text x="420" y="8" font-family="Inter,system-ui,sans-serif" font-size="10" fill="#8a9499" text-anchor="end">Postings per 30d window</text>
    </g>
  </g>

  <!-- Right panel: top movers -->
  <g transform="translate(800,70)">
    <rect width="360" height="520" rx="12" fill="#1C2028" stroke="#222832" stroke-width="1.5"/>
    <text x="24" y="32" font-family="Inter,system-ui,sans-serif" font-size="15" font-weight="700" fill="#DDE0E6">Top Industries</text>

    <g transform="translate(24,52)">
      <rect width="312" height="68" rx="8" fill="rgba(224,120,80,0.08)"/>
      <text x="16" y="26" font-family="Inter,system-ui,sans-serif" font-size="12" font-weight="600" fill="#E07850">AI / ML</text>
      <text x="16" y="52" font-family="Inter,system-ui,sans-serif" font-size="24" font-weight="800" fill="#DDE0E6">772</text>
      <text x="80" y="52" font-family="Inter,system-ui,sans-serif" font-size="11" fill="#8a9499">postings</text>
      <text x="296" y="52" font-family="Inter,system-ui,sans-serif" font-size="14" font-weight="700" fill="#E07850" text-anchor="end">+82%</text>
    </g>

    <g transform="translate(24,132)">
      <rect width="312" height="68" rx="8" fill="rgba(91,158,166,0.08)"/>
      <text x="16" y="26" font-family="Inter,system-ui,sans-serif" font-size="12" font-weight="600" fill="#5B9EA6">SaaS</text>
      <text x="16" y="52" font-family="Inter,system-ui,sans-serif" font-size="24" font-weight="800" fill="#DDE0E6">760</text>
      <text x="80" y="52" font-family="Inter,system-ui,sans-serif" font-size="11" fill="#8a9499">postings</text>
      <text x="296" y="52" font-family="Inter,system-ui,sans-serif" font-size="14" font-weight="700" fill="#5B9EA6" text-anchor="end">+14%</text>
    </g>

    <g transform="translate(24,212)">
      <rect width="312" height="68" rx="8" fill="rgba(224,120,80,0.08)"/>
      <text x="16" y="26" font-family="Inter,system-ui,sans-serif" font-size="12" font-weight="600" fill="#E07850">Cybersecurity</text>
      <text x="16" y="52" font-family="Inter,system-ui,sans-serif" font-size="24" font-weight="800" fill="#DDE0E6">420</text>
      <text x="80" y="52" font-family="Inter,system-ui,sans-serif" font-size="11" fill="#8a9499">postings</text>
      <text x="296" y="52" font-family="Inter,system-ui,sans-serif" font-size="14" font-weight="700" fill="#E07850" text-anchor="end">+34%</text>
    </g>

    <g transform="translate(24,292)">
      <rect width="312" height="68" rx="8" fill="rgba(91,158,166,0.08)"/>
      <text x="16" y="26" font-family="Inter,system-ui,sans-serif" font-size="12" font-weight="600" fill="#5B9EA6">Fintech</text>
      <text x="16" y="52" font-family="Inter,system-ui,sans-serif" font-size="24" font-weight="800" fill="#DDE0E6">452</text>
      <text x="80" y="52" font-family="Inter,system-ui,sans-serif" font-size="11" fill="#8a9499">postings</text>
      <text x="296" y="52" font-family="Inter,system-ui,sans-serif" font-size="14" font-weight="700" fill="#5B9EA6" text-anchor="end">+8%</text>
    </g>

    <g transform="translate(24,380)">
      <rect width="312" height="116" rx="8" fill="#222832"/>
      <text x="16" y="28" font-family="Inter,system-ui,sans-serif" font-size="13" font-weight="600" fill="#DDE0E6">Key Takeaway</text>
      <text x="16" y="52" font-family="Inter,system-ui,sans-serif" font-size="12" fill="#8a9499">AI/ML hiring heat is concentrated</text>
      <text x="16" y="68" font-family="Inter,system-ui,sans-serif" font-size="12" fill="#8a9499">in engineering and product.</text>
      <text x="16" y="90" font-family="Inter,system-ui,sans-serif" font-size="12" fill="#8a9499">Cybersecurity sales hiring is up —</text>
      <text x="16" y="106" font-family="Inter,system-ui,sans-serif" font-size="12" fill="#8a9499">signals a GTM push.</text>
    </g>
  </g>
</svg>
